<?xml version="1.0" encoding="UTF-8"?><svg id="_圖層_2" xmlns="http://www.w3.org/2000/svg" viewBox="0 0 1094.56 248.8"><defs><style>.cls-1{fill:#040000;}</style></defs><g id="_圖層_1-2"><path class="cls-1" d="M221.16,212.75c-29.94-19.87-59.86-39.73-89.84-59.63,10.09-15.18,20.1-30.25,30.16-45.37.51.31.92.55,1.31.81,7.21,4.78,14.41,9.57,21.62,14.35,4.16,2.76,8.34,5.52,12.5,8.28v-26c-8.07-5.36-16.15-10.71-24.22-16.07-24.39-16.17-48.77-32.34-73.16-48.51h121.62v35.17h24.24V16.37H63.02c-7.8-5.2-15.61-10.38-23.4-15.59C38.78.22,37.96,0,36.96,0,26.86.1,16.75.17,6.65.24c-2.2.02-4.4,0-6.6,0-.02.09-.03.18-.05.27,9.78,6.49,19.57,12.99,29.35,19.48,8.08,5.36,16.16,10.73,24.24,16.09,29.95,19.88,59.88,39.75,89.85,59.64-10.09,15.18-20.12,30.26-30.18,45.38-.61-.39-1.08-.69-1.55-1-11.3-7.5-22.59-15-33.88-22.5v26c12.77,8.47,25.54,16.95,38.32,25.42,19.66,13.05,39.31,26.1,58.97,39.15H53.59v-35.17h-24.24v59.42h182.32l23.77,15.73c.63.38,1.43.64,2.15.64,11.2-.04,22.4-.13,33.6-.21,1.18,0,2.37,0,3.55,0,0-.09.01-.17.02-.26-9.78-6.49-19.57-12.99-29.35-19.48-8.08-5.36-16.16-10.73-24.24-16.09ZM206.91,229.28h0c.1.07.2.13.3.2l-.3-.2Z"/><path class="cls-1" d="M221.16,186.94c8.08,5.39,16.17,10.76,24.24,16.15v-96.03h-24.24v79.88Z"/><path class="cls-1" d="M53.59,61.9h-.22c-8.01-5.31-16.02-10.63-24.02-15.95v95.78h24.24V61.9Z"/><path class="cls-1" d="M377.59,84.56c-3.04,0-5.22-.82-7.01-2.61-1.57-1.65-2.67-4.01-3.02-6.47l-.45-3.13-12.35,3.43.58,2.58c1.11,4.93,3.52,9.48,6.59,12.46,4.03,3.95,9.12,5.86,15.56,5.86,13.09,0,22.6-9.27,22.6-22.03,0-5.39-1.74-9.75-5.32-13.33-2.81-2.81-6.24-4.63-10.53-6.5l-6.01-2.63c-2.17-.96-4.22-1.86-5.79-3.42-1.17-1.11-1.48-1.82-1.48-3.43,0-4.19,3.04-6.9,7.75-6.9,2.72,0,4.41.86,5.31,1.55,1.03.82,2.2,2.34,2.92,3.77l1.4,2.8,10.24-6.77-1.15-2.22c-1.68-3.25-4.18-6.08-7.03-7.99-3.41-2.27-6.98-3.28-11.59-3.28-11.79,0-20.34,7.96-20.34,18.94,0,5.01,1.59,8.79,5.17,12.24,2.96,2.86,6.09,4.3,8.61,5.46l6.16,2.87c2.96,1.35,5.29,2.42,6.8,3.84,1.52,1.39,2.2,3.02,2.2,5.28,0,4.44-2.57,9.62-9.81,9.62Z"/><path class="cls-1" d="M504.79,95.56h13.76l-32.26-75.42-33.13,75.42h13.79l7.52-17.66h22.99l7.33,17.66ZM486.05,50.59l6.37,15.19h-12.86l6.48-15.19Z"/><polygon class="cls-1" points="608.95 72.89 583.57 17.08 571.2 95.56 583.99 95.56 589.2 58.99 608.81 102.08 628.69 59.01 633.65 95.56 646.43 95.56 634.83 16.95 608.95 72.89"/><polygon class="cls-1" points="739.62 52.81 713.04 52.81 713.04 27.35 700.54 27.35 700.54 95.56 713.04 95.56 713.04 64.94 739.62 64.94 739.62 95.56 752.12 95.56 752.12 27.35 739.62 27.35 739.62 52.81"/><path class="cls-1" d="M844.24,68.55c0,4.99,0,9.71-4,13.11-1.95,1.66-5.61,2.91-8.54,2.91s-6.59-1.25-8.54-2.91c-4-3.4-4-8.11-4-13.11V27.35h-12.5v43.08c0,5.43.54,11.2,4.48,16.66,4.44,6.1,11.93,9.6,20.56,9.6s16.13-3.5,20.57-9.61c3.93-5.46,4.47-11.23,4.47-16.65V27.35h-12.5v41.2Z"/><polygon class="cls-1" points="972.65 27.35 960.15 27.35 960.15 71.77 911.29 20.57 911.29 95.56 923.8 95.56 923.8 51.33 972.65 102.54 972.65 27.35"/><path class="cls-1" d="M1062.9,58.54v12.13h18.23c-.44,2.06-1.17,3.67-1.8,4.78-3.19,5.62-9.61,9.12-16.75,9.12-11,0-22.68-8.05-22.68-22.96,0-13.42,9.62-23.15,22.87-23.15,6.95,0,11.02,2.65,13.46,4.63,1.9,1.56,3.77,3.61,5.41,5.93l1.81,2.57,9.34-8.49-1.47-2.01c-2.13-2.92-4.97-5.83-7.78-7.98-7.28-5.6-15.36-6.78-20.86-6.78-20.22,0-35.47,15.13-35.47,35.19s15.17,35.19,35.28,35.19c14.22,0,22.1-7.77,25.53-12.4,4.1-5.57,6.55-13.6,6.55-21.47v-4.28h-31.67Z"/><path class="cls-1" d="M390.98,200.86h18.23c-.44,2.06-1.17,3.67-1.8,4.78-3.19,5.62-9.61,9.12-16.75,9.12-11,0-22.68-8.05-22.68-22.96,0-13.42,9.62-23.15,22.87-23.15,6.95,0,11.02,2.65,13.46,4.63,1.9,1.56,3.77,3.61,5.41,5.93l1.81,2.57,9.34-8.49-1.47-2.01c-2.13-2.92-4.97-5.83-7.78-7.98-7.28-5.6-15.36-6.78-20.86-6.78-20.22,0-35.47,15.13-35.47,35.19s15.17,35.19,35.28,35.19c14.22,0,22.1-7.77,25.53-12.4,4.1-5.57,6.55-13.6,6.55-21.47v-4.28h-31.67v12.13Z"/><path class="cls-1" d="M514.53,177.7c0-6.77-3.03-12.83-8.07-16.2-5.16-3.51-11.68-3.96-16.78-3.96h-12.83v68.21h12.5v-23.92l16.63,23.92h15.29l-20.5-28.82c8.3-2.45,13.77-9.83,13.77-19.24ZM490.99,186.58h-1.64v-16.9h1.45c2.49,0,5.33.11,7.64,1.42,2.48,1.41,3.58,3.51,3.58,6.8,0,7.18-6,8.69-11.04,8.69Z"/><path class="cls-1" d="M562.18,225.76h13.79l7.52-17.66h22.99l7.33,17.66h13.76l-32.26-75.42-33.13,75.42ZM595.06,180.78l6.37,15.19h-12.86l6.48-15.19Z"/><path class="cls-1" d="M708.14,162.64c-5.16-4.47-11.51-5.09-17.6-5.09h-14.14v68.21h12.5v-27.24h3.33c16.68,0,22.6-10.96,22.6-20.34,0-3.66-.87-10.54-6.69-15.53ZM702.32,177.79c0,7.1-5.69,8.59-10.47,8.59h-2.96v-16.71h2.39c11.04,0,11.04,6.11,11.04,8.12Z"/><polygon class="cls-1" points="805.29 183.01 778.71 183.01 778.71 157.55 766.21 157.55 766.21 225.76 778.71 225.76 778.71 195.13 805.29 195.13 805.29 225.76 817.79 225.76 817.79 157.55 805.29 157.55 805.29 183.01"/><rect class="cls-1" x="875.37" y="157.55" width="12.5" height="68.21"/><path class="cls-1" d="M977.64,156.51c-20.27,0-35.56,15.21-35.56,35.38s15.13,35,35.19,35c4.2,0,12.45-.86,20.5-6.62l1.16-.83v-16.77l-4.74,4.74c-1.35,1.35-3.58,3.28-6.54,4.75-3.27,1.68-6.95,2.6-10.38,2.6-8.7,0-22.5-6.18-22.5-22.78,0-13.31,9.63-23.34,22.4-23.34,3.13,0,6.56.78,9.62,2.18,2.51,1.18,5.27,3.15,7.39,5.28l4.74,4.74v-16.72l-1.09-.83c-5.97-4.55-12.58-6.77-20.19-6.77Z"/><path class="cls-1" d="M1078.71,185.02l-6.01-2.63c-2.17-.96-4.22-1.86-5.79-3.42-1.17-1.11-1.48-1.82-1.48-3.43,0-4.19,3.04-6.9,7.75-6.9,2.72,0,4.41.86,5.31,1.55,1.03.82,2.2,2.34,2.92,3.77l1.4,2.8,10.24-6.77-1.15-2.22c-1.68-3.25-4.18-6.08-7.03-7.99-3.41-2.27-6.98-3.28-11.59-3.28-11.79,0-20.34,7.96-20.34,18.94,0,5.01,1.59,8.79,5.17,12.24,2.96,2.86,6.09,4.3,8.61,5.46l6.16,2.87c2.96,1.35,5.29,2.42,6.8,3.84,1.52,1.39,2.2,3.02,2.2,5.28,0,4.44-2.57,9.62-9.81,9.62-3.04,0-5.22-.82-7.01-2.61-1.57-1.65-2.67-4.01-3.02-6.47l-.45-3.13-12.35,3.43.58,2.58c1.11,4.93,3.52,9.48,6.59,12.46,4.03,3.95,9.12,5.86,15.56,5.86,13.09,0,22.6-9.27,22.6-22.03,0-5.39-1.74-9.75-5.32-13.33-2.81-2.81-6.24-4.63-10.53-6.5Z"/></g></svg>